<svg width="48" height="48" viewBox="0 0 48 48" fill="none" xmlns="http://www.w3.org/2000/svg">
<g clip-path="url(#clip0_275_45)">
<path d="M24 46.9998C36.7025 46.9998 46.9999 36.7024 46.9999 23.9999C46.9999 11.2974 36.7025 1 24 1C11.2974 1 1 11.2974 1 23.9999C1 36.7024 11.2974 46.9998 24 46.9998Z" fill="url(#paint0_linear_275_45)"/>
<path d="M23.8908 20.3416C22.2289 20.3416 21.0513 21.6905 21.0513 23.3507V33.582C21.0513 35.2439 22.2289 36.5903 23.8908 36.5903C25.5519 36.5903 26.7286 35.2439 26.7286 33.582V23.3507C26.7286 21.6888 25.5519 20.3416 23.8908 20.3416Z" fill="white" fill-opacity="0.852041"/>
<path d="M23.9031 12.5197C22.1863 12.5197 20.7932 13.912 20.7932 15.6296C20.7932 17.3464 22.1863 18.7379 23.9031 18.7379C25.6183 18.7379 27.0114 17.3464 27.0114 15.6296C27.0114 13.912 25.6183 12.5197 23.9031 12.5197Z" fill="white" fill-opacity="0.852041"/>
</g>
<defs>
<linearGradient id="paint0_linear_275_45" x1="23.0513" y1="45.917" x2="23.0513" y2="1.55985" gradientUnits="userSpaceOnUse">
<stop stop-color="#197FF1"/>
<stop offset="1" stop-color="#21C6FB"/>
</linearGradient>
<clipPath id="clip0_275_45">
<rect width="48" height="48" fill="white"/>
</clipPath>
</defs>
</svg>
