<svg width="213" height="187" viewBox="0 0 213 187" fill="none" xmlns="http://www.w3.org/2000/svg">
<g clip-path="url(#clip0_369_149)">
<ellipse cx="116.519" cy="93.5" rx="96.4808" ry="93.5" fill="#EDF200"/>
<g clip-path="url(#clip1_369_149)">
<path fill-rule="evenodd" clip-rule="evenodd" d="M169.998 53.4853C179.349 46.473 192.047 48.6428 198.36 58.3317L199.191 59.6083C205.504 69.2972 203.04 82.8362 193.689 89.8484L155.692 118.342L152.87 120.458L150.965 117.534L125.315 78.1649C119.002 68.4759 121.465 54.9369 130.817 47.9245L132.049 47.0007C141.4 39.9883 154.098 42.1582 160.41 51.8471L164.274 57.7772L169.998 53.4853ZM136.251 80.2579L125.479 78.4172L125.315 78.1649C123.77 75.7939 122.751 73.1927 122.23 70.5126L136.163 72.8936L143.522 67.3757L146.344 65.2596L148.249 68.1834L156.418 80.7216L159.991 78.0416L161.16 77.165L173.257 79.2322L171.96 86.3599L162.632 84.7659L157.405 88.6854L154.583 90.8016L152.679 87.8777L144.51 75.3396L138.804 79.6179L137.635 80.4945L136.251 80.2579Z" fill="black"/>
</g>
</g>
<defs>
<clipPath id="clip0_369_149">
<rect width="213" height="187" fill="white"/>
</clipPath>
<clipPath id="clip1_369_149">
<rect width="194.092" height="75.2707" fill="white" transform="translate(0 39.5576)"/>
</clipPath>
</defs>
</svg>
