<svg width="84" height="85" viewBox="0 0 84 85" fill="none" xmlns="http://www.w3.org/2000/svg">
<path d="M83.2877 42.1815C83.2877 65.4777 64.6431 84.363 41.6438 84.363C18.6446 84.363 0 65.4777 0 42.1815C0 18.8853 18.6446 0 41.6438 0C64.6431 0 83.2877 18.8853 83.2877 42.1815ZM11.1865 42.1815C11.1865 59.2198 24.8227 73.032 41.6438 73.032C58.4649 73.032 72.1012 59.2198 72.1012 42.1815C72.1012 25.1432 58.4649 11.3309 41.6438 11.3309C24.8227 11.3309 11.1865 25.1432 11.1865 42.1815Z" fill="#1E1E1E"/>
<path d="M26.4528 26.7876L58.2876 41.8207L26.2824 55.446" stroke="black" stroke-width="6"/>
</svg>
