<svg width="159" height="145" viewBox="0 0 159 145" fill="none" xmlns="http://www.w3.org/2000/svg">
<path d="M54.6207 36.0345C73.9374 36.049 72.1593 59.9606 72.151 69.5259C72.1401 81.7337 75.4332 106.373 65.0852 115.752C54.5405 125.309 33.4638 130.076 22.9348 122.097C12.4058 114.119 30.0365 36.0162 54.6207 36.0345Z" fill="black"/>
<path d="M103.954 36.0715C84.6373 36.0571 86.3721 59.9714 86.3635 69.5364C86.3523 81.7445 83.015 106.379 93.3458 115.773C103.873 125.346 124.941 130.145 135.485 122.182C146.028 114.218 128.538 36.0899 103.954 36.0715Z" fill="black"/>
<path fill-rule="evenodd" clip-rule="evenodd" d="M76.0024 18.0286C76.0024 18.0286 76.0024 18.0282 79.3044 18.0307C82.6063 18.0332 82.6063 18.0335 82.6063 18.0335L82.567 61.5866C82.5614 67.9013 79.4695 71.5207 75.9691 73.3761C74.3267 74.2467 72.7137 74.6686 71.5313 74.8769C70.9336 74.9823 70.4268 75.0364 70.0536 75.0644C69.8664 75.0785 69.7116 75.086 69.5934 75.0902C69.5346 75.0923 69.4847 75.0935 69.4444 75.0941L69.3916 75.0947H69.3708H69.3579C69.3579 75.0947 69.354 75.0947 69.3566 72.0896C69.3592 69.0844 69.3556 69.0844 69.3556 69.0844H69.3523L69.346 69.0847H69.3361H69.3256C69.3256 69.0847 69.3328 69.0848 69.3421 69.0841C69.3692 69.0832 69.4269 69.0808 69.5105 69.0745C69.6789 69.0619 69.9453 69.0346 70.2759 68.9763C70.9495 68.8576 71.8119 68.6244 72.6457 68.1823C74.0969 67.4133 75.9592 65.78 75.9631 61.5818L76.0024 18.0286Z" fill="black"/>
<path fill-rule="evenodd" clip-rule="evenodd" d="M82.6063 18.0335C82.6063 18.0335 82.6063 18.0332 79.3044 18.0307C76.0024 18.0282 76.0024 18.0286 76.0024 18.0286L75.9631 61.5818C75.9575 67.8965 79.0425 71.5204 82.5399 73.3809C84.1807 74.2539 85.7927 74.6782 86.9748 74.8883C87.5724 74.9947 88.0793 75.0496 88.4521 75.0782C88.6393 75.0923 88.7945 75.1001 88.9124 75.1046C88.9715 75.1067 89.0213 75.108 89.0613 75.1086L89.1141 75.1095H89.1349H89.1438H89.1478C89.1478 75.1095 89.1518 75.1095 89.1544 72.1043C89.157 69.0992 89.161 69.0992 89.161 69.0992H89.1643H89.1706L89.1805 69.0995H89.191C89.191 69.0995 89.1877 69.0995 89.1742 69.0989C89.1471 69.098 89.0897 69.0953 89.0061 69.089C88.8377 69.076 88.5713 69.0484 88.2411 68.9895C87.5675 68.8699 86.7053 68.6352 85.8726 68.1922C84.4227 67.4208 82.5631 65.7848 82.567 61.5866L82.6063 18.0335Z" fill="black"/>
</svg>
