<svg width="51" height="46" viewBox="0 0 51 46" fill="none" xmlns="http://www.w3.org/2000/svg">
<path d="M7.28577 23V41.5714C7.28577 43.6228 8.91675 45.2857 10.9286 45.2857H40.0715C42.0834 45.2857 43.7143 43.6228 43.7143 41.5714V23L25.5001 4.42859L7.28577 23Z" fill="#8FBFFA"/>
<path d="M29.1429 45.2857H21.8572V34.1429C21.8572 32.0915 23.4882 30.4286 25.5 30.4286C27.5119 30.4286 29.1429 32.0915 29.1429 34.1429V45.2857Z" fill="#2859C5"/>
<path fill-rule="evenodd" clip-rule="evenodd" d="M22.9241 1.80217C24.3467 0.351668 26.6533 0.351668 28.0759 1.80217L49.933 24.0879C51.3555 25.5384 51.3555 27.8902 49.933 29.3407C48.5105 30.7912 46.2038 30.7912 44.7813 29.3407L25.5 9.68136L6.21876 29.3407C4.79611 30.7912 2.48959 30.7912 1.06697 29.3407C-0.355656 27.8902 -0.355656 25.5384 1.06697 24.0879L22.9241 1.80217Z" fill="#2859C5"/>
</svg>
