<svg width="51" height="52" viewBox="0 0 51 52" fill="none" xmlns="http://www.w3.org/2000/svg">
<g clip-path="url(#clip0_275_53)">
<path d="M7.28571 26V44.5714C7.28571 46.6228 8.91669 48.2857 10.9286 48.2857H40.0714C42.0834 48.2857 43.7143 46.6228 43.7143 44.5714V26L25.5 7.42859L7.28571 26Z" fill="#8FBFFA"/>
<path d="M29.1428 48.2857H21.8571V37.1429C21.8571 35.0915 23.4881 33.4286 25.5 33.4286C27.5119 33.4286 29.1428 35.0915 29.1428 37.1429V48.2857Z" fill="#2859C5"/>
<path fill-rule="evenodd" clip-rule="evenodd" d="M22.9241 4.80217C24.3467 3.35167 26.6533 3.35167 28.0759 4.80217L49.933 27.0879C51.3555 28.5384 51.3555 30.8902 49.933 32.3407C48.5105 33.7912 46.2038 33.7912 44.7813 32.3407L25.5 12.6814L6.21876 32.3407C4.79611 33.7912 2.48959 33.7912 1.06697 32.3407C-0.355656 30.8902 -0.355656 28.5384 1.06697 27.0879L22.9241 4.80217Z" fill="#2859C5"/>
</g>
<defs>
<clipPath id="clip0_275_53">
<rect width="51" height="52" fill="white"/>
</clipPath>
</defs>
</svg>
