<svg width="110" height="109" viewBox="0 0 110 109" fill="none" xmlns="http://www.w3.org/2000/svg">
<path fill-rule="evenodd" clip-rule="evenodd" d="M65.0579 15.3647C77.6578 5.61495 94.7674 8.63183 103.273 22.1031L104.394 23.878C112.899 37.3491 109.58 56.1734 96.9801 65.923L45.7816 105.54L41.9793 108.482L39.4125 104.417L4.85106 49.6786C-3.65449 36.2072 -0.335273 17.3829 12.2648 7.63316L13.925 6.3486C26.525 -3.40114 43.6345 -0.384269 52.14 13.0869L57.3462 21.332L65.0579 15.3647ZM19.5868 52.5886L5.07303 50.0294L4.85106 49.6786C2.7698 46.3821 1.39676 42.7654 0.694301 39.0391L19.4687 42.3495L29.3838 34.6776L33.1862 31.7353L35.753 35.8006L46.7598 53.2333L51.5748 49.5071L53.1498 48.2884L69.4501 51.1626L67.7027 61.0727L55.1333 58.8564L48.0909 64.3061L44.2885 67.2483L41.7218 63.183L30.715 45.7503L23.0273 51.6988L21.4523 52.9175L19.5868 52.5886Z" fill="black"/>
</svg>
