<svg width="127" height="116" viewBox="0 0 127 116" fill="none" xmlns="http://www.w3.org/2000/svg">
<path fill-rule="evenodd" clip-rule="evenodd" d="M71.0982 9.81035C83.5122 -3.27011 103.64 -3.27011 116.054 9.81029L117.69 11.5338C130.103 24.6141 130.103 45.8217 117.69 58.9019L67.2465 112.053L63.5003 116L59.754 112.053L9.31062 58.9024C-3.10353 45.8218 -3.10355 24.6142 9.31062 11.5338L10.9463 9.81035C23.3604 -3.27011 43.4878 -3.27011 55.9018 9.81035L63.5003 17.8162L71.0982 9.81035ZM26.7082 59.243H9.63444L9.31062 58.9024C6.27292 55.7015 3.97882 52.0143 2.42774 48.0781H24.5137L34.2824 37.7853L38.0288 33.8379L41.775 37.7852L57.8398 54.7123L62.5837 49.7132L64.1355 48.0781H83.3109V59.243H68.5244L61.5861 66.5543L57.8398 70.5016L54.0935 66.5543L38.0288 49.6273L30.4545 57.6079L28.9028 59.243H26.7082Z" fill="black"/>
</svg>
