<svg width="144" height="142" viewBox="0 0 144 142" fill="none" xmlns="http://www.w3.org/2000/svg">
<path fill-rule="evenodd" clip-rule="evenodd" d="M57.0834 88.0249L57.0789 82.8072L57.0636 64.5846L57.0335 28.1871C57.0263 19.5076 63.7088 12.4661 71.9594 12.4594C80.2099 12.4528 86.9044 19.4835 86.9116 28.163L86.9418 64.5606L86.957 82.7846L86.9615 88.0008C92.4295 92.2973 95.9339 98.9035 95.9402 106.315C95.951 119.276 85.2582 129.792 72.0571 129.803C58.8563 129.813 48.1459 119.315 48.1351 106.353C48.1289 98.9419 51.6225 92.3302 57.0834 88.0249ZM68.9614 63.5685C72.534 64.4752 76.6135 65.5108 80.9671 65.4357L80.962 59.3192L74.9863 59.3239C73.3362 59.325 71.9973 58.0128 71.9961 56.3926C71.9946 54.7724 73.3314 53.4579 74.9813 53.4567L80.9569 53.452L80.9521 47.5848L74.9765 47.5895C73.3263 47.5907 71.9875 46.2785 71.9863 44.6583C71.9848 43.0381 73.3215 41.7235 74.9717 41.7223L80.9473 41.7176L80.9423 35.8505L74.9666 35.8552C73.3165 35.8563 71.9779 34.5441 71.9764 32.9239C71.9752 31.3037 73.3117 29.9893 74.9618 29.988L80.9375 29.9832L80.936 28.1679C80.9315 22.9602 76.915 18.7417 71.9645 18.7457C67.0143 18.7497 63.0046 22.9746 63.0091 28.1823L63.0375 62.3334C64.7877 62.5091 66.78 63.0149 68.9614 63.5685Z" fill="black"/>
</svg>
