<svg width="132" height="132" viewBox="0 0 132 132" fill="none" xmlns="http://www.w3.org/2000/svg">
<path fill-rule="evenodd" clip-rule="evenodd" d="M51.8622 81.2484L51.8581 76.3892L51.8442 59.4185L51.8166 25.5214C51.8101 17.4382 57.9206 10.8805 65.4648 10.8743C73.0091 10.8681 79.1306 17.4158 79.1371 25.4991L79.1647 59.3961L79.1786 76.3682L79.1827 81.226C84.1827 85.2274 87.3871 91.3797 87.3928 98.282C87.4027 110.353 77.6252 120.146 65.5542 120.156C53.4834 120.166 43.6899 110.389 43.68 98.3177C43.6743 91.4155 46.8689 85.258 51.8622 81.2484ZM62.7235 58.4722C65.9902 59.3166 69.7206 60.281 73.7014 60.2111L73.6968 54.5148L68.2327 54.5192C66.7238 54.5202 65.4995 53.2982 65.4984 51.7893C65.4971 50.2804 66.7194 49.0561 68.228 49.0551L73.6921 49.0507L73.6878 43.5866L68.2237 43.591C66.7147 43.592 65.4905 42.37 65.4894 40.8611C65.4881 39.3522 66.7104 38.1279 68.2193 38.1269L73.6834 38.1225L73.6787 32.6584L68.2146 32.6628C66.7057 32.6638 65.4818 31.4418 65.4804 29.9329C65.4793 28.424 66.7014 27.1999 68.2103 27.1987L73.6744 27.1942L73.673 25.5036C73.6689 20.6536 69.9962 16.725 65.4695 16.7287C60.943 16.7324 57.2766 20.667 57.2807 25.517L57.3067 57.322C58.9071 57.4856 60.7288 57.9566 62.7235 58.4722Z" fill="black"/>
</svg>
