<svg width="108" height="105" viewBox="0 0 108 105" fill="none" xmlns="http://www.w3.org/2000/svg">
<path fill-rule="evenodd" clip-rule="evenodd" d="M42.9331 65.0279L42.9298 61.1612L42.9185 47.6569L42.896 20.6835C42.8907 14.2513 47.8571 9.03301 53.9889 9.02808C60.1206 9.02317 65.0959 14.2335 65.1012 20.6657L65.1236 47.6391L65.135 61.1445L65.1383 65.0101C69.2021 68.1942 71.8065 73.0898 71.8112 78.5823C71.8192 88.1877 63.8724 95.9807 54.0615 95.9887C44.2508 95.9966 36.2909 88.2162 36.2829 78.6107C36.2782 73.1183 38.8747 68.2185 42.9331 65.0279ZM51.7608 46.9038C54.4159 47.5758 57.4478 48.3433 60.6833 48.2876L60.6795 43.7548L56.2385 43.7583C55.0121 43.7591 54.0171 42.7867 54.0162 41.586C54.0151 40.3853 55.0085 39.4111 56.2347 39.4102L60.6757 39.4068L60.6722 35.0587L56.2311 35.0622C55.0048 35.0631 54.0097 34.0906 54.0089 32.8899C54.0077 31.6892 55.0012 30.715 56.2276 30.7142L60.6686 30.7107L60.6649 26.3627L56.2238 26.3661C54.9974 26.367 54.0026 25.3946 54.0015 24.1939C54.0006 22.9932 54.9939 22.0191 56.2203 22.0181L60.6613 22.0146L60.6602 20.6693C60.6569 16.8099 57.6718 13.6837 53.9926 13.6867C50.3137 13.6896 47.3338 16.8206 47.3371 20.6799L47.3582 45.9886C48.659 46.1188 50.1396 46.4936 51.7608 46.9038Z" fill="black"/>
</svg>
